<?xml version="1.0" encoding="UTF-8" standalone="no"?>
<svg
   xmlns:dc="http://purl.org/dc/elements/1.1/"
   xmlns:cc="http://creativecommons.org/ns#"
   xmlns:rdf="http://www.w3.org/1999/02/22-rdf-syntax-ns#"
   xmlns:svg="http://www.w3.org/2000/svg"
   xmlns="http://www.w3.org/2000/svg"
   xmlns:sodipodi="http://sodipodi.sourceforge.net/DTD/sodipodi-0.dtd"
   xmlns:inkscape="http://www.inkscape.org/namespaces/inkscape"
   width="32"
   height="32"
   viewBox="0 0 32 32"
   version="1.1"
   id="svg7"
   sodipodi:docname="primary.svg"
   inkscape:version="0.92.3 (2405546, 2018-03-11)">
  <metadata
     id="metadata11">
    <rdf:RDF>
      <cc:Work
         rdf:about="">
        <dc:format>image/svg+xml</dc:format>
        <dc:type
           rdf:resource="http://purl.org/dc/dcmitype/StillImage" />
        <dc:title />
      </cc:Work>
    </rdf:RDF>
  </metadata>
  <sodipodi:namedview
     pagecolor="#ffffff"
     bordercolor="#666666"
     borderopacity="1"
     objecttolerance="10"
     gridtolerance="10"
     guidetolerance="10"
     inkscape:pageopacity="0"
     inkscape:pageshadow="2"
     inkscape:window-width="1366"
     inkscape:window-height="703"
     id="namedview9"
     showgrid="false"
     inkscape:zoom="5.2249848"
     inkscape:cx="-37.694915"
     inkscape:cy="24.135593"
     inkscape:window-x="0"
     inkscape:window-y="0"
     inkscape:window-maximized="1"
     inkscape:current-layer="e56b5762-8244-4dc6-bee4-16f86d43a43d"
     inkscape:snap-bbox="false"
     inkscape:bbox-paths="false"
     inkscape:bbox-nodes="false"
     inkscape:snap-bbox-midpoints="false"
     inkscape:snap-global="true" />
  <defs
     id="defs3">
    <path
       id="primary-a"
       d="m 2.248384,11.65969 c -0.082282,0.04817 -0.1493872,0.12051 -0.1930825,0.208154 -0.1239557,0.24863 -0.032523,0.555716 0.20422,0.685895 l 12.9722665,7.133144 c 0.141192,0.07764 0.309734,0.07728 0.450624,-9.62e-4 l 10.660055,-5.919837 c 0.209089,-0.116113 0.442027,-0.17681 0.678548,-0.17681 0.801693,0 1.451593,0.682532 1.451593,1.524478 v 7.378313 c 0,0.280649 0.216634,0.50816 0.483865,0.50816 h 0.559662 C 29.783366,23.000225 30,22.772714 30,22.492065 v -9.763199 c 0,-0.184371 -0.09509,-0.354279 -0.248471,-0.443973 L 15.694089,4.0644115 C 15.547673,3.9787907 15.369497,3.9788317 15.223116,4.06452 Z M 1.7467537,10.775971 14.749375,3.1925862 c 0.440084,-0.2566659 0.975763,-0.2567889 1.415955,-3.25e-4 L 30.252985,11.399987 C 30.714119,11.668651 31,12.177583 31,12.729838 v 9.748049 C 31,23.318527 30.348703,24 29.545286,24 h -0.560865 c -0.803416,0 -1.454714,-0.681473 -1.454714,-1.522113 v -7.366863 c 0,-0.280214 -0.217099,-0.507371 -0.484904,-0.507371 -0.07901,0 -0.156823,0.0202 -0.226669,0.05884 l -10.682968,5.910651 c -0.42358,0.234357 -0.930291,0.235435 -1.354779,0.0029 L 1.7802379,13.453956 C 1.0684815,13.064023 0.79359477,12.144195 1.1662612,11.399462 1.2976288,11.136938 1.499377,10.920246 1.7467537,10.775971 Z M 6,19.494104 v 3.181684 c 0,0.179704 0.09293,0.345234 0.2426654,0.432244 l 8.3123476,4.830201 c 0.138785,0.08065 0.306927,0.08242 0.447231,0.0047 l 8.746757,-4.843686 C 23.903379,23.013785 24,22.845575 24,22.662304 v -3.1682 c 0,-0.272835 -0.210627,-0.494011 -0.470448,-0.494011 -0.07877,0 -0.156286,0.02077 -0.225427,0.06041 l -7.627841,4.372888 c -0.421495,0.241635 -0.931073,0.241635 -1.352568,0 L 6.6958754,19.060502 C 6.4678259,18.929766 6.1820277,19.017913 6.0575273,19.257385 6.0197806,19.329989 6,19.411384 6,19.494104 Z m -1,-0.0086 c 0,-0.248696 0.059695,-0.49341 0.173608,-0.711695 0.375722,-0.719971 1.2382143,-0.984986 1.9264305,-0.591928 l 7.6731935,4.382359 c 0.141333,0.08072 0.312203,0.08072 0.453536,0 l 7.673193,-4.382359 c 0.208657,-0.11917 0.442578,-0.181619 0.680305,-0.181619 0.784098,0 1.419734,0.664966 1.419734,1.485242 v 3.175061 c 0,0.551005 -0.291586,1.056728 -0.757475,1.313753 l -8.798762,4.854176 c -0.423413,0.233592 -0.930837,0.228247 -1.349668,-0.01422 L 5.7323247,23.973635 C 5.2804476,23.712041 5,23.214376 5,22.674097 Z"
       inkscape:connector-curvature="0" />
  </defs>
  <g
     data-v-423bf9ae=""
     id="e56b5762-8244-4dc6-bee4-16f86d43a43d"
     transform="matrix(0.4764837,-0.47806312,0.47806312,0.4764837,0.56341672,16.189648)"
     style="opacity:0.6;fill:#ffff00;stroke:#000000;stroke-opacity:1">
    <path
       inkscape:connector-curvature="0"
       d="M 4.8723884,12.46444 8.093853,24.024466 19.566684,27.559581 27.816219,19.534633 24.592919,7.9745705 13.121922,4.4394924 Z"
       id="path5"
       style="fill:#ffff00;stroke:#000000;stroke-width:1.29676688;stroke-opacity:1" />
    <path
       inkscape:connector-curvature="0"
       d="M 47.213288,15.598314 15.940713,-15.540055 -15.197656,15.732522 16.074921,46.870889 16.168546,36.898543 -5.2258029,15.596006 15.847086,-5.5677089 37.241437,15.734827 Z"
       id="path7"
       style="fill:#ffff00;stroke:#000000;stroke-width:1.3791033;stroke-opacity:1" />
  </g>
</svg>
